<svg xmlns="http://www.w3.org/2000/svg" viewBox="0 0 1560 1060" width="1560" height="1060" font-family="Segoe UI, Inter, Helvetica, Arial, sans-serif">
<defs><marker id="head" viewBox="0 0 10 10" refX="9" refY="5" markerWidth="6" markerHeight="6" orient="auto-start-reverse"><path d="M0 0 L10 5 L0 10 z" fill="#7f8ea1"/></marker></defs>
<rect width="1560" height="1060" fill="#ffffff"/>
<svg x="44" y="36" width="42" height="42" viewBox="0 0 256 242"><defs><linearGradient id="SVG4V795Kgq" x1="58.972%" x2="37.191%" y1="7.411%" y2="103.762%"><stop offset="0%" stop-color="#114a8b"/><stop offset="100%" stop-color="#0669bc"/></linearGradient><linearGradient id="SVGzpurqcJr" x1="59.719%" x2="52.691%" y1="52.313%" y2="54.864%"><stop offset="0%" stop-opacity=".3"/><stop offset="7.1%" stop-opacity=".2"/><stop offset="32.1%" stop-opacity=".1"/><stop offset="62.3%" stop-opacity=".05"/><stop offset="100%" stop-opacity="0"/></linearGradient><linearGradient id="SVGZ5kCkZNr" x1="37.279%" x2="62.473%" y1="4.6%" y2="99.979%"><stop offset="0%" stop-color="#3ccbf4"/><stop offset="100%" stop-color="#2892df"/></linearGradient></defs><path fill="url(#SVG4V795Kgq)" d="M85.343.003h75.753L82.457 233a12.08 12.08 0 0 1-11.442 8.216H12.06A12.06 12.06 0 0 1 .633 225.303L73.898 8.219A12.08 12.08 0 0 1 85.343 0z"/><path fill="#0078d4" d="M195.423 156.282H75.297a5.56 5.56 0 0 0-3.796 9.627l77.19 72.047a12.14 12.14 0 0 0 8.28 3.26h68.02z"/><path fill="url(#SVGzpurqcJr)" d="M85.343.003a11.98 11.98 0 0 0-11.471 8.376L.723 225.105a12.045 12.045 0 0 0 11.37 16.112h60.475a12.93 12.93 0 0 0 9.921-8.437l14.588-42.991l52.105 48.6a12.33 12.33 0 0 0 7.757 2.828h67.766l-29.721-84.935l-86.643.02L161.37.003z"/><path fill="url(#SVGZ5kCkZNr)" d="M182.098 8.207A12.06 12.06 0 0 0 170.67.003H86.245c5.175 0 9.773 3.301 11.428 8.204L170.94 225.3a12.062 12.062 0 0 1-11.428 15.92h84.429a12.062 12.062 0 0 0 11.425-15.92z"/></svg>
<text x="100" y="74" font-size="26" font-weight="600" fill="#12243a" text-anchor="start">Microsoft Azure</text>
<line x1="300" y1="36" x2="300" y2="82" stroke="#dbe3ec" stroke-width="2"/>
<text x="326" y="74" font-size="27" font-weight="700" fill="#12243a" text-anchor="start">Merry&#8217;s Way AI Assistant, cloud architecture</text>
<rect x="40" y="120" width="250" height="380" rx="16" fill="#eef6fd" stroke="#cfe4f7" stroke-width="1.5"/><svg x="60" y="138" width="26" height="26" viewBox="0 0 18 18"><defs><linearGradient id="e6ad4df9-0ab7-4b49-9706-620b42380f0b" x1="9" y1="16.236" x2="9" y2="5.599" gradientUnits="userSpaceOnUse"><stop offset="0" stop-color="#005ba1" /><stop offset="0.775" stop-color="#0078d4" /></linearGradient></defs><g id="e7885b9c-9714-4276-bd41-591cb7e086a5"><path d="M0,5.6H18a0,0,0,0,1,0,0V15.635a.6.6,0,0,1-.6.6H.6a.6.6,0,0,1-.6-.6V5.6A0,0,0,0,1,0,5.6Z" fill="url(#e6ad4df9-0ab7-4b49-9706-620b42380f0b)" /><rect x="1.309" y="6.657" width="15.527" height="8.514" rx="0.6" fill="#5ea0ef" opacity="0.6" /><path d="M.6,1.764H17.4a.6.6,0,0,1,.6.6V5.6a0,0,0,0,1,0,0H0a0,0,0,0,1,0,0V2.365A.6.6,0,0,1,.6,1.764Z" fill="#005ba1" /><path d="M7.109,13.217l-.321.32a.144.144,0,0,1-.205,0L4.258,11.205a.29.29,0,0,1,0-.41l.321-.32L7.11,13.012A.145.145,0,0,1,7.109,13.217Zm3.653,0,.321.32a.144.144,0,0,0,.205,0l2.325-2.332a.29.29,0,0,0,0-.41l-.322-.32-2.53,2.537A.145.145,0,0,0,10.762,13.217Z" fill="#fff" opacity="0.8" /><path d="M6.831,8.433l.32.321a.144.144,0,0,1,0,.205L4.576,11.527l-.32-.322a.289.289,0,0,1,0-.41l2.37-2.363A.145.145,0,0,1,6.831,8.433Zm4.207,0-.32.321a.144.144,0,0,0,0,.205l2.575,2.568.32-.321a.292.292,0,0,0,0-.411l-2.37-2.362A.144.144,0,0,0,11.038,8.434Z" fill="#fff" /><path d="M8.159,14.363,7.646,14.2a.105.105,0,0,1-.067-.131L9.669,7.54a.1.1,0,0,1,.13-.067l.513.164a.1.1,0,0,1,.067.13L8.289,14.3A.1.1,0,0,1,8.159,14.363Z" fill="#fff" /><path d="M3.166,3.847a.76.76,0,1,1-.76-.76A.76.76,0,0,1,3.166,3.847ZM4.8,3.087a.76.76,0,1,0,.76.76A.76.76,0,0,0,4.8,3.087Zm2.393,0a.76.76,0,1,0,.76.76A.76.76,0,0,0,7.191,3.087Z" fill="#fff" /></g></svg><text x="96" y="158" font-size="16" font-weight="700" fill="#12243a" text-anchor="start">User Experience</text>
<rect x="60" y="210" width="210" height="84" rx="10" fill="#ffffff" stroke="#dbe3ec" stroke-width="1.4"/><svg x="76" y="239.0" width="26" height="26" viewBox="0 0 18 18"><defs><linearGradient id="e6ad4df9-0ab7-4b49-9706-620b42380f0b" x1="9" y1="16.236" x2="9" y2="5.599" gradientUnits="userSpaceOnUse"><stop offset="0" stop-color="#005ba1" /><stop offset="0.775" stop-color="#0078d4" /></linearGradient></defs><g id="e7885b9c-9714-4276-bd41-591cb7e086a5"><path d="M0,5.6H18a0,0,0,0,1,0,0V15.635a.6.6,0,0,1-.6.6H.6a.6.6,0,0,1-.6-.6V5.6A0,0,0,0,1,0,5.6Z" fill="url(#e6ad4df9-0ab7-4b49-9706-620b42380f0b)" /><rect x="1.309" y="6.657" width="15.527" height="8.514" rx="0.6" fill="#5ea0ef" opacity="0.6" /><path d="M.6,1.764H17.4a.6.6,0,0,1,.6.6V5.6a0,0,0,0,1,0,0H0a0,0,0,0,1,0,0V2.365A.6.6,0,0,1,.6,1.764Z" fill="#005ba1" /><path d="M7.109,13.217l-.321.32a.144.144,0,0,1-.205,0L4.258,11.205a.29.29,0,0,1,0-.41l.321-.32L7.11,13.012A.145.145,0,0,1,7.109,13.217Zm3.653,0,.321.32a.144.144,0,0,0,.205,0l2.325-2.332a.29.29,0,0,0,0-.41l-.322-.32-2.53,2.537A.145.145,0,0,0,10.762,13.217Z" fill="#fff" opacity="0.8" /><path d="M6.831,8.433l.32.321a.144.144,0,0,1,0,.205L4.576,11.527l-.32-.322a.289.289,0,0,1,0-.41l2.37-2.363A.145.145,0,0,1,6.831,8.433Zm4.207,0-.32.321a.144.144,0,0,0,0,.205l2.575,2.568.32-.321a.292.292,0,0,0,0-.411l-2.37-2.362A.144.144,0,0,0,11.038,8.434Z" fill="#fff" /><path d="M8.159,14.363,7.646,14.2a.105.105,0,0,1-.067-.131L9.669,7.54a.1.1,0,0,1,.13-.067l.513.164a.1.1,0,0,1,.067.13L8.289,14.3A.1.1,0,0,1,8.159,14.363Z" fill="#fff" /><path d="M3.166,3.847a.76.76,0,1,1-.76-.76A.76.76,0,0,1,3.166,3.847ZM4.8,3.087a.76.76,0,1,0,.76.76A.76.76,0,0,0,4.8,3.087Zm2.393,0a.76.76,0,1,0,.76.76A.76.76,0,0,0,7.191,3.087Z" fill="#fff" /></g></svg><text x="114" y="249.0" font-size="14" font-weight="700" fill="#12243a" text-anchor="start">Web App</text><text x="114" y="266.0" font-size="11.5" font-weight="400" fill="#5b6a7d" text-anchor="start">chat interface</text>
<text x="165" y="330" font-size="11.5" font-weight="400" fill="#5b6a7d" text-anchor="middle">Static Web Apps</text>
<rect x="320" y="120" width="270" height="380" rx="16" fill="#eaf3fb" stroke="#c9dff2" stroke-width="1.5"/><svg x="340" y="138" width="26" height="26" viewBox="0 0 18 18"><defs><linearGradient id="a3a44093-b157-426e-a8fe-cec9f9c23978" x1="11.729" y1="4.88" x2="11.729" y2="13.099" gradientUnits="userSpaceOnUse"><stop offset="0.001" stop-color="#773adc" /><stop offset="0.528" stop-color="#6635bb" /><stop offset="1" stop-color="#552f99" /></linearGradient><linearGradient id="ad838859-03f4-472f-81bc-ebc921d71335" x1="6.35" y1="13.914" x2="6.35" y2="4.198" gradientUnits="userSpaceOnUse"><stop offset="0.001" stop-color="#773adc" /><stop offset="0.307" stop-color="#793ddd" /><stop offset="0.532" stop-color="#8046e1" /><stop offset="0.731" stop-color="#8c56e7" /><stop offset="0.915" stop-color="#9c6def" /><stop offset="1" stop-color="#a67af4" /></linearGradient></defs><g id="ae82470d-7a6c-4dfe-8533-59d8ff948629"><g><path d="M8.617,8.644H.639V1.784A1.16,1.16,0,0,1,1.788.624H8.617ZM1.63,7.653h6V1.594H1.788a.158.158,0,0,0-.158.158h0Z" fill="#949494" /><path d="M17.5,8.644H9.523V.624h6.828A1.16,1.16,0,0,1,17.5,1.784Zm-6.987-.991h6V1.784a.157.157,0,0,0-.123-.187.2.2,0,0,0-.035,0H10.513Z" fill="#949494" /><path d="M8.617,17.485H1.788A1.149,1.149,0,0,1,.639,16.347V9.476H8.617ZM1.63,10.467v5.88a.158.158,0,0,0,.158.158H7.626V10.467Z" fill="#949494" /><path d="M16.351,17.485H9.523V9.476H17.5v6.871A1.149,1.149,0,0,1,16.351,17.485Zm-5.838-.991h5.838a.157.157,0,0,0,.158-.158V10.467h-6Z" fill="#949494" /><path d="M14.6,6.294a.294.294,0,0,0-.2-.278L9.044,4.205A.128.128,0,0,0,9,4.2H9a.132.132,0,0,0-.133.133v9.445A.133.133,0,0,0,9,13.911H9a.138.138,0,0,0,.049-.01l5.365-2.145a.292.292,0,0,0,.184-.272Z" fill="url(#a3a44093-b157-426e-a8fe-cec9f9c23978)" /><path d="M8.966,4.2l-5.293.966a.161.161,0,0,0-.13.158V12.63a.16.16,0,0,0,.126.157L8.962,13.91a.161.161,0,0,0,.191-.121.22.22,0,0,0,0-.036V4.358A.16.16,0,0,0,9,4.2.163.163,0,0,0,8.966,4.2Z" fill="url(#ad838859-03f4-472f-81bc-ebc921d71335)" /><path d="M6.52,5.656v6.8l1.842.3V5.335Zm-2.262.367v5.955l1.6.326V5.754Z" fill="#b796f9" opacity="0.5" /></g></g></svg><text x="376" y="158" font-size="16" font-weight="700" fill="#12243a" text-anchor="start">Azure Runtime</text>
<rect x="340" y="190" width="230" height="84" rx="10" fill="#ffffff" stroke="#dbe3ec" stroke-width="1.4"/><svg x="356" y="219.0" width="26" height="26" viewBox="0 0 18 18"><defs><linearGradient id="a3a44093-b157-426e-a8fe-cec9f9c23978" x1="11.729" y1="4.88" x2="11.729" y2="13.099" gradientUnits="userSpaceOnUse"><stop offset="0.001" stop-color="#773adc" /><stop offset="0.528" stop-color="#6635bb" /><stop offset="1" stop-color="#552f99" /></linearGradient><linearGradient id="ad838859-03f4-472f-81bc-ebc921d71335" x1="6.35" y1="13.914" x2="6.35" y2="4.198" gradientUnits="userSpaceOnUse"><stop offset="0.001" stop-color="#773adc" /><stop offset="0.307" stop-color="#793ddd" /><stop offset="0.532" stop-color="#8046e1" /><stop offset="0.731" stop-color="#8c56e7" /><stop offset="0.915" stop-color="#9c6def" /><stop offset="1" stop-color="#a67af4" /></linearGradient></defs><g id="ae82470d-7a6c-4dfe-8533-59d8ff948629"><g><path d="M8.617,8.644H.639V1.784A1.16,1.16,0,0,1,1.788.624H8.617ZM1.63,7.653h6V1.594H1.788a.158.158,0,0,0-.158.158h0Z" fill="#949494" /><path d="M17.5,8.644H9.523V.624h6.828A1.16,1.16,0,0,1,17.5,1.784Zm-6.987-.991h6V1.784a.157.157,0,0,0-.123-.187.2.2,0,0,0-.035,0H10.513Z" fill="#949494" /><path d="M8.617,17.485H1.788A1.149,1.149,0,0,1,.639,16.347V9.476H8.617ZM1.63,10.467v5.88a.158.158,0,0,0,.158.158H7.626V10.467Z" fill="#949494" /><path d="M16.351,17.485H9.523V9.476H17.5v6.871A1.149,1.149,0,0,1,16.351,17.485Zm-5.838-.991h5.838a.157.157,0,0,0,.158-.158V10.467h-6Z" fill="#949494" /><path d="M14.6,6.294a.294.294,0,0,0-.2-.278L9.044,4.205A.128.128,0,0,0,9,4.2H9a.132.132,0,0,0-.133.133v9.445A.133.133,0,0,0,9,13.911H9a.138.138,0,0,0,.049-.01l5.365-2.145a.292.292,0,0,0,.184-.272Z" fill="url(#a3a44093-b157-426e-a8fe-cec9f9c23978)" /><path d="M8.966,4.2l-5.293.966a.161.161,0,0,0-.13.158V12.63a.16.16,0,0,0,.126.157L8.962,13.91a.161.161,0,0,0,.191-.121.22.22,0,0,0,0-.036V4.358A.16.16,0,0,0,9,4.2.163.163,0,0,0,8.966,4.2Z" fill="url(#ad838859-03f4-472f-81bc-ebc921d71335)" /><path d="M6.52,5.656v6.8l1.842.3V5.335Zm-2.262.367v5.955l1.6.326V5.754Z" fill="#b796f9" opacity="0.5" /></g></g></svg><text x="394" y="229.0" font-size="14" font-weight="700" fill="#12243a" text-anchor="start">Container Apps</text><text x="394" y="246.0" font-size="11.5" font-weight="400" fill="#5b6a7d" text-anchor="start">scale 0 to 3, revisions</text>
<rect x="340" y="296" width="230" height="84" rx="10" fill="#ffffff" stroke="#dbe3ec" stroke-width="1.4"/><svg x="356" y="325.0" width="26" height="26" viewBox="0 0 256 256"><path fill="#009688" d="M128 0C57.33 0 0 57.33 0 128s57.33 128 128 128s128-57.33 128-128S198.67 0 128 0m-6.67 230.605v-80.288H76.699l64.128-124.922v80.288h42.966z"/></svg><text x="394" y="335.0" font-size="14" font-weight="700" fill="#12243a" text-anchor="start">FastAPI</text><text x="394" y="352.0" font-size="11.5" font-weight="400" fill="#5b6a7d" text-anchor="start">orchestrator container</text>
<rect x="340" y="402" width="230" height="62" rx="10" fill="#ffffff" stroke="#dbe3ec" stroke-width="1.4"/><svg x="356" y="420.0" width="26" height="26" viewBox="0 0 256 185"><path fill="#2396ed" d="M250.716 70.497c-5.765-4-18.976-5.5-29.304-3.5c-1.2-10-6.725-18.749-16.333-26.499l-5.524-4l-3.844 5.75c-4.803 7.5-7.205 18-6.485 28c.24 3.499 1.441 9.749 5.044 15.249c-3.362 2-10.328 4.5-19.455 4.5H1.155l-.48 2c-1.682 9.999-1.682 41.248 18.014 65.247c14.892 18.249 36.99 27.499 66.053 27.499c62.93 0 109.528-30.25 131.386-84.997c8.647.25 27.142 0 36.51-18.75c.24-.5.72-1.5 2.401-5.249l.961-2zM139.986 0h-26.42v24.999h26.42zm0 29.999h-26.42v24.999h26.42zm-31.225 0h-26.42v24.999h26.42zm-31.225 0H51.115v24.999h26.421zM46.311 59.998H19.89v24.999h26.42zm31.225 0H51.115v24.999h26.421zm31.225 0h-26.42v24.999h26.42zm31.226 0h-26.422v24.999h26.422zm31.225 0H144.79v24.999h26.422z"/></svg><text x="394" y="430.0" font-size="14" font-weight="700" fill="#12243a" text-anchor="start">Docker image</text><text x="394" y="447.0" font-size="11.5" font-weight="400" fill="#5b6a7d" text-anchor="start">tagged by commit</text>
<rect x="620" y="120" width="480" height="380" rx="16" fill="#f3f0fd" stroke="#d9d0f5" stroke-width="1.5"/><svg x="640" y="138" width="26" height="26" viewBox="0 0 18 18"><defs><radialGradient id="uuid-2a7407aa-b787-48dd-a96a-0d81ab6e93bb" cx="-67.981" cy="793.199" r=".45" gradientTransform="translate(-17939.03 20368.029) rotate(45) scale(25.091 -34.149)" gradientUnits="userSpaceOnUse"><stop offset="0" stop-color="#83b9f9" /><stop offset="1" stop-color="#0078d4" /></radialGradient></defs><path d="m0,2.7v12.6c0,1.491,1.209,2.7,2.7,2.7h12.6c1.491,0,2.7-1.209,2.7-2.7V2.7c0-1.491-1.209-2.7-2.7-2.7H2.7C1.209,0,0,1.209,0,2.7ZM10.8,0v3.6c0,3.976,3.224,7.2,7.2,7.2h-3.6c-3.976,0-7.199,3.222-7.2,7.198v-3.598c0-3.976-3.224-7.2-7.2-7.2h3.6c3.976,0,7.2-3.224,7.2-7.2Z" fill="url(#uuid-2a7407aa-b787-48dd-a96a-0d81ab6e93bb)" stroke-width="0" /></svg><text x="676" y="158" font-size="16" font-weight="700" fill="#12243a" text-anchor="start">AI Agents</text>
<rect x="700" y="176" width="320" height="62" rx="10" fill="#ffffff" stroke="#c0392b" stroke-width="1.6"/><rect x="700" y="176" width="4" height="62" rx="2" fill="#c0392b"/><text x="860.0" y="202" font-size="13.5" font-weight="700" fill="#12243a" text-anchor="middle">Guard</text><text x="860.0" y="220" font-size="11" font-weight="400" fill="#5b6a7d" text-anchor="middle">Content Safety, then scope check</text>
<rect x="700" y="268" width="320" height="62" rx="10" fill="#ffffff" stroke="#7d5fb2" stroke-width="1.6"/><rect x="700" y="268" width="4" height="62" rx="2" fill="#7d5fb2"/><text x="860.0" y="294" font-size="13.5" font-weight="700" fill="#12243a" text-anchor="middle">Router</text><text x="860.0" y="312" font-size="11" font-weight="400" fill="#5b6a7d" text-anchor="middle">intent classification</text>
<rect x="640" y="360" width="140" height="76" rx="10" fill="#ffffff" stroke="#2a7fbf" stroke-width="1.6"/><rect x="640" y="360" width="4" height="76" rx="2" fill="#2a7fbf"/><text x="710.0" y="386" font-size="13.5" font-weight="700" fill="#12243a" text-anchor="middle">Details</text><text x="710.0" y="404" font-size="11" font-weight="400" fill="#5b6a7d" text-anchor="middle">RAG answers</text>
<rect x="790" y="360" width="140" height="76" rx="10" fill="#ffffff" stroke="#d98324" stroke-width="1.6"/><rect x="790" y="360" width="4" height="76" rx="2" fill="#d98324"/><text x="860.0" y="386" font-size="13.5" font-weight="700" fill="#12243a" text-anchor="middle">Order</text><text x="860.0" y="404" font-size="11" font-weight="400" fill="#5b6a7d" text-anchor="middle">items, totals</text>
<rect x="940" y="360" width="140" height="76" rx="10" fill="#ffffff" stroke="#2e8b57" stroke-width="1.6"/><rect x="940" y="360" width="4" height="76" rx="2" fill="#2e8b57"/><text x="1010.0" y="386" font-size="13.5" font-weight="700" fill="#12243a" text-anchor="middle">Recommendation</text><text x="1010.0" y="404" font-size="11" font-weight="400" fill="#5b6a7d" text-anchor="middle">market basket</text>
<path d="M860 238 V 262" fill="none" stroke="#7f8ea1" stroke-width="1.6" marker-end="url(#head)"/>
<path d="M860 330 V 346 M710 346 H 1010" fill="none" stroke="#7f8ea1" stroke-width="1.6" marker-end="none"/>
<path d="M710 346 V 354" fill="none" stroke="#7f8ea1" stroke-width="1.6" marker-end="url(#head)"/>
<path d="M860 346 V 354" fill="none" stroke="#7f8ea1" stroke-width="1.6" marker-end="url(#head)"/>
<path d="M1010 346 V 354" fill="none" stroke="#7f8ea1" stroke-width="1.6" marker-end="url(#head)"/>
<path d="M860 436 C 860 452, 1010 452, 1010 440" fill="none" stroke="#2e8b57" stroke-width="1.6" marker-end="url(#head)"/>
<text x="935" y="466" font-size="10.5" font-weight="600" fill="#2e8b57" text-anchor="middle">upsell</text>
<rect x="1130" y="120" width="390" height="380" rx="16" fill="#ecfaf3" stroke="#c6ebda" stroke-width="1.5"/><svg x="1150" y="138" width="26" height="26" viewBox="0 0 18 18"><defs><radialGradient id="uuid-2a7407aa-b787-48dd-a96a-0d81ab6e93bb" cx="-67.981" cy="793.199" r=".45" gradientTransform="translate(-17939.03 20368.029) rotate(45) scale(25.091 -34.149)" gradientUnits="userSpaceOnUse"><stop offset="0" stop-color="#83b9f9" /><stop offset="1" stop-color="#0078d4" /></radialGradient></defs><path d="m0,2.7v12.6c0,1.491,1.209,2.7,2.7,2.7h12.6c1.491,0,2.7-1.209,2.7-2.7V2.7c0-1.491-1.209-2.7-2.7-2.7H2.7C1.209,0,0,1.209,0,2.7ZM10.8,0v3.6c0,3.976,3.224,7.2,7.2,7.2h-3.6c-3.976,0-7.199,3.222-7.2,7.198v-3.598c0-3.976-3.224-7.2-7.2-7.2h3.6c3.976,0,7.2-3.224,7.2-7.2Z" fill="url(#uuid-2a7407aa-b787-48dd-a96a-0d81ab6e93bb)" stroke-width="0" /></svg><text x="1186" y="158" font-size="16" font-weight="700" fill="#12243a" text-anchor="start">AI Services</text>
<rect x="1150" y="186" width="350" height="76" rx="10" fill="#ffffff" stroke="#dbe3ec" stroke-width="1.4"/><svg x="1166" y="211.0" width="26" height="26" viewBox="0 0 18 18"><defs><radialGradient id="uuid-2a7407aa-b787-48dd-a96a-0d81ab6e93bb" cx="-67.981" cy="793.199" r=".45" gradientTransform="translate(-17939.03 20368.029) rotate(45) scale(25.091 -34.149)" gradientUnits="userSpaceOnUse"><stop offset="0" stop-color="#83b9f9" /><stop offset="1" stop-color="#0078d4" /></radialGradient></defs><path d="m0,2.7v12.6c0,1.491,1.209,2.7,2.7,2.7h12.6c1.491,0,2.7-1.209,2.7-2.7V2.7c0-1.491-1.209-2.7-2.7-2.7H2.7C1.209,0,0,1.209,0,2.7ZM10.8,0v3.6c0,3.976,3.224,7.2,7.2,7.2h-3.6c-3.976,0-7.199,3.222-7.2,7.198v-3.598c0-3.976-3.224-7.2-7.2-7.2h3.6c3.976,0,7.2-3.224,7.2-7.2Z" fill="url(#uuid-2a7407aa-b787-48dd-a96a-0d81ab6e93bb)" stroke-width="0" /></svg><text x="1204" y="221.0" font-size="14" font-weight="700" fill="#12243a" text-anchor="start">Azure OpenAI</text><text x="1204" y="238.0" font-size="11.5" font-weight="400" fill="#5b6a7d" text-anchor="start">gpt-5.4-mini, embeddings</text>
<rect x="1150" y="278" width="350" height="76" rx="10" fill="#ffffff" stroke="#dbe3ec" stroke-width="1.4"/><svg x="1166" y="303.0" width="26" height="26" viewBox="0 0 18 18"><defs><linearGradient id="b198f9ad-224e-4f37-99bb-f1c5a20d3916" x1="9" y1="0.36" x2="9" y2="18.31" gradientUnits="userSpaceOnUse"><stop offset="0.18" stop-color="#5ea0ef" /><stop offset="1" stop-color="#0078d4" /></linearGradient></defs><title>Icon-web-44</title><path d="M18,11.32a4.12,4.12,0,0,0-3.51-4,5.15,5.15,0,0,0-5.25-5,5.25,5.25,0,0,0-5,3.49A4.86,4.86,0,0,0,0,10.59a5,5,0,0,0,5.07,4.82l.44,0h8.21a.78.78,0,0,0,.22,0A4.13,4.13,0,0,0,18,11.32Z" fill="url(#b198f9ad-224e-4f37-99bb-f1c5a20d3916)" /><path d="M12.33,6.59a3.07,3.07,0,0,0-5.61.85,3.16,3.16,0,0,0,.33,2.27L4.71,12.08a.79.79,0,0,0,0,1.12.78.78,0,0,0,.56.23.76.76,0,0,0,.56-.23l2.33-2.36a3.14,3.14,0,0,0,.81.33,3.08,3.08,0,0,0,3.36-4.58Zm-.54,2.1A2.16,2.16,0,0,1,9.7,10.34a1.79,1.79,0,0,1-.51-.07,1.87,1.87,0,0,1-.7-.32,2.13,2.13,0,0,1-.56-.56,2.17,2.17,0,0,1-.31-1.73A2.14,2.14,0,0,1,9.7,6a2.31,2.31,0,0,1,.52.06,2.18,2.18,0,0,1,1.32,1A2.13,2.13,0,0,1,11.79,8.69Z" fill="#f2f2f2" /><ellipse cx="9.69" cy="8.18" rx="2.15" ry="2.16" fill="#83b9f9" /></svg><text x="1204" y="313.0" font-size="14" font-weight="700" fill="#12243a" text-anchor="start">Azure AI Search</text><text x="1204" y="330.0" font-size="11.5" font-weight="400" fill="#5b6a7d" text-anchor="start">hybrid BM25 + vector, reranker</text>
<rect x="1150" y="370" width="350" height="76" rx="10" fill="#ffffff" stroke="#dbe3ec" stroke-width="1.4"/><svg x="1166" y="395.0" width="26" height="26" viewBox="0 0 18 18"><defs><linearGradient id="uuid-80fd62f5-d182-4403-8456-6923e7e033bb" x1="7.997" y1="14.863" x2="7.997" y2="2.057" gradientUnits="userSpaceOnUse"><stop offset="0" stop-color="#0078d4" /><stop offset=".82" stop-color="#5ea0ef" /></linearGradient><linearGradient id="uuid-f6289940-e1be-4e56-904f-ba5a1586dc17" x1="-558.124" y1="1021.188" x2="-558.124" y2="1019.083" gradientTransform="translate(564 1025.516) scale(1 -1)" gradientUnits="userSpaceOnUse"><stop offset="0" stop-color="#fff" stop-opacity=".7" /><stop offset="1" stop-color="#fff" stop-opacity=".6" /></linearGradient></defs><path d="m.362,3.138C.162,3.138,0,2.976,0,2.777h0V.361C0,.162.162,0,.362,0h2.266c.2,0,.362.162.362.361,0,.199-.162.361-.362.361H.724v2.053c0,.199-.161.362-.361.362,0,0,0,0-.001,0Zm17.638-.361V.361C18,.162,17.838,0,17.638,0h-2.266c-.2,0-.362.162-.362.361s.162.361.362.361h1.904v2.053c0,.199.162.361.362.361.2,0,.361-.162.362-.361h0ZM2.99,17.639c0-.199-.162-.361-.362-.361H.724v-2.053c0-.199-.162-.361-.362-.361-.2,0-.362.162-.362.361v2.415c0,.199.163.36.362.36h2.266c.2,0,.362-.162.362-.361Zm15.01.001v-2.415c0-.199-.162-.361-.362-.361-.2,0-.361.162-.362.361v2.053h-1.904c-.2,0-.362.162-.362.362,0,.199.162.361.362.361h2.266c.199,0,.361-.161.362-.36Z" fill="#76bc2d" /><g><path d="m13.864,8.047c0,3.822-4.627,6.907-5.632,7.544-.12.066-.265.066-.386,0-1.073-.687-5.716-3.772-5.716-7.544V3.386c0-.197.155-.36.352-.369,3.604-.101,2.783-1.676,5.482-1.676s1.861,1.576,5.465,1.676c.197.009.352.171.352.369l.084,4.66Z" fill="#0078d4" /><path d="m8.04,14.863c-4.683-3.064-5.194-5.781-5.194-6.816V3.719c1.873-.106,2.625-.637,3.236-1.068.489-.345.843-.594,1.881-.594s1.387.249,1.872.593c.607.431,1.355.962,3.235,1.069l.078,4.34c0,.817-.372,3.733-5.109,6.804Z" fill="url(#uuid-80fd62f5-d182-4403-8456-6923e7e033bb)" /></g><g><rect x="8.155" y="4.328" width="3.721" height=".691" rx=".141" ry=".141" fill="#fff" opacity=".7" /><rect x="8.155" y="5.742" width="3.721" height=".691" rx=".141" ry=".141" fill="#fff" opacity=".6" /><rect x="4.117" y="9.983" width="4.472" height=".691" rx=".141" ry=".141" fill="#fff" opacity=".3" /><rect x="4.117" y="8.57" width="7.76" height=".691" rx=".141" ry=".141" fill="#fff" opacity=".4" /><rect x="4.117" y="7.156" width="7.076" height=".691" rx=".14" ry=".14" fill="#fff" opacity=".5" /><g id="uuid-69ff294d-4d54-4881-9832-ea140e19e0d2"><path d="m4.235,4.328h3.282c.065,0,.118.046.118.102v1.901c0,.057-.053.102-.118.102h-3.282c-.065,0-.118-.046-.118-.102v-1.901c0-.057.053-.102.118-.102Z" fill="url(#uuid-f6289940-e1be-4e56-904f-ba5a1586dc17)" /></g></g><g><circle cx="12.449" cy="13.203" r="3.442" fill="#76bc2d" /><g><path d="m12.096,14.356l-.316.316c-.054.054-.141.054-.195,0h0l-1.256-1.256c-.054-.054-.054-.141,0-.195h0l.219-.219c.054-.054.141-.054.195,0h0l1.353,1.353h0Z" fill="#fff" /><path d="m11.591,14.676l-.316-.316h0l2.888-2.888c.054-.054.141-.054.195,0h0l.219.219c.054.054.054.141,0,.195h0l-2.791,2.791c-.054.054-.141.054-.195,0h0Z" fill="#f0f0f0" /></g></g></svg><text x="1204" y="405.0" font-size="14" font-weight="700" fill="#12243a" text-anchor="start">AI Content Safety</text><text x="1204" y="422.0" font-size="11.5" font-weight="400" fill="#5b6a7d" text-anchor="start">moderation, Prompt Shields</text>
<rect x="620" y="540" width="480" height="190" rx="16" fill="#eef6fd" stroke="#cfe4f7" stroke-width="1.5"/><svg x="640" y="558" width="26" height="26" viewBox="0 0 18 18"><defs><radialGradient id="b25d0836-964a-4c84-8c20-855f66e8345e" cx="-105.006" cy="-10.409" r="5.954" gradientTransform="translate(117.739 19.644) scale(1.036 1.027)" gradientUnits="userSpaceOnUse"><stop offset="0.183" stop-color="#5ea0ef" /><stop offset="1" stop-color="#0078d4" /></radialGradient><clipPath id="b36c7f5d-2ef1-4760-8a25-eeb9661f4e47"><path d="M14.969,7.53A6.137,6.137,0,1,1,7.574,2.987,6.137,6.137,0,0,1,14.969,7.53Z" fill="none" /></clipPath></defs><title>Icon-databases-121</title><path d="M2.954,5.266a.175.175,0,0,1-.176-.176h0A2.012,2.012,0,0,0,.769,3.081a.176.176,0,0,1-.176-.175h0a.176.176,0,0,1,.176-.176A2.012,2.012,0,0,0,2.778.72.175.175,0,0,1,2.954.544h0A.175.175,0,0,1,3.13.72h0A2.012,2.012,0,0,0,5.139,2.729a.175.175,0,0,1,.176.176h0a.175.175,0,0,1-.176.176h0A2.011,2.011,0,0,0,3.13,5.09.177.177,0,0,1,2.954,5.266Z" fill="#50e6ff" /><path d="M15.611,17.456a.141.141,0,0,1-.141-.141h0a1.609,1.609,0,0,0-1.607-1.607.141.141,0,0,1-.141-.14h0a.141.141,0,0,1,.141-.141h0a1.608,1.608,0,0,0,1.607-1.607.141.141,0,0,1,.141-.141h0a.141.141,0,0,1,.141.141h0a1.608,1.608,0,0,0,1.607,1.607.141.141,0,1,1,0,.282h0a1.609,1.609,0,0,0-1.607,1.607A.141.141,0,0,1,15.611,17.456Z" fill="#50e6ff" /><g><path d="M14.969,7.53A6.137,6.137,0,1,1,7.574,2.987,6.137,6.137,0,0,1,14.969,7.53Z" fill="url(#b25d0836-964a-4c84-8c20-855f66e8345e)" /><g clip-path="url(#b36c7f5d-2ef1-4760-8a25-eeb9661f4e47)"><path d="M5.709,13.115A1.638,1.638,0,1,0,5.714,9.84,1.307,1.307,0,0,0,5.721,9.7,1.651,1.651,0,0,0,4.06,8.064H2.832a6.251,6.251,0,0,0,1.595,5.051Z" fill="#f2f2f2" /><path d="M15.045,7.815c0-.015,0-.03-.007-.044a5.978,5.978,0,0,0-1.406-2.88,1.825,1.825,0,0,0-.289-.09,1.806,1.806,0,0,0-2.3,1.663,2,2,0,0,0-.2-.013,1.737,1.737,0,0,0-.581,3.374,1.451,1.451,0,0,0,.541.1h2.03A13.453,13.453,0,0,0,15.045,7.815Z" fill="#f2f2f2" /></g></g><path d="M17.191,3.832c-.629-1.047-2.1-1.455-4.155-1.149a14.606,14.606,0,0,0-2.082.452,6.456,6.456,0,0,1,1.528.767c.241-.053.483-.116.715-.151A7.49,7.49,0,0,1,14.3,3.662a2.188,2.188,0,0,1,1.959.725h0c.383.638.06,1.729-.886,3a16.723,16.723,0,0,1-4.749,4.051A16.758,16.758,0,0,1,4.8,13.7c-1.564.234-2.682,0-3.065-.636s-.06-1.73.886-2.995c.117-.157.146-.234.279-.392a6.252,6.252,0,0,1,.026-1.63A11.552,11.552,0,0,0,1.756,9.419C.517,11.076.181,12.566.809,13.613a3.165,3.165,0,0,0,2.9,1.249,8.434,8.434,0,0,0,1.251-.1,17.855,17.855,0,0,0,6.219-2.4,17.808,17.808,0,0,0,5.061-4.332C17.483,6.369,17.819,4.88,17.191,3.832Z" fill="#50e6ff" /></svg><text x="676" y="578" font-size="16" font-weight="700" fill="#12243a" text-anchor="start">Data and Knowledge</text>
<rect x="640" y="598" width="220" height="76" rx="10" fill="#ffffff" stroke="#dbe3ec" stroke-width="1.4"/><svg x="656" y="623.0" width="26" height="26" viewBox="0 0 18 18"><defs><radialGradient id="b25d0836-964a-4c84-8c20-855f66e8345e" cx="-105.006" cy="-10.409" r="5.954" gradientTransform="translate(117.739 19.644) scale(1.036 1.027)" gradientUnits="userSpaceOnUse"><stop offset="0.183" stop-color="#5ea0ef" /><stop offset="1" stop-color="#0078d4" /></radialGradient><clipPath id="b36c7f5d-2ef1-4760-8a25-eeb9661f4e47"><path d="M14.969,7.53A6.137,6.137,0,1,1,7.574,2.987,6.137,6.137,0,0,1,14.969,7.53Z" fill="none" /></clipPath></defs><title>Icon-databases-121</title><path d="M2.954,5.266a.175.175,0,0,1-.176-.176h0A2.012,2.012,0,0,0,.769,3.081a.176.176,0,0,1-.176-.175h0a.176.176,0,0,1,.176-.176A2.012,2.012,0,0,0,2.778.72.175.175,0,0,1,2.954.544h0A.175.175,0,0,1,3.13.72h0A2.012,2.012,0,0,0,5.139,2.729a.175.175,0,0,1,.176.176h0a.175.175,0,0,1-.176.176h0A2.011,2.011,0,0,0,3.13,5.09.177.177,0,0,1,2.954,5.266Z" fill="#50e6ff" /><path d="M15.611,17.456a.141.141,0,0,1-.141-.141h0a1.609,1.609,0,0,0-1.607-1.607.141.141,0,0,1-.141-.14h0a.141.141,0,0,1,.141-.141h0a1.608,1.608,0,0,0,1.607-1.607.141.141,0,0,1,.141-.141h0a.141.141,0,0,1,.141.141h0a1.608,1.608,0,0,0,1.607,1.607.141.141,0,1,1,0,.282h0a1.609,1.609,0,0,0-1.607,1.607A.141.141,0,0,1,15.611,17.456Z" fill="#50e6ff" /><g><path d="M14.969,7.53A6.137,6.137,0,1,1,7.574,2.987,6.137,6.137,0,0,1,14.969,7.53Z" fill="url(#b25d0836-964a-4c84-8c20-855f66e8345e)" /><g clip-path="url(#b36c7f5d-2ef1-4760-8a25-eeb9661f4e47)"><path d="M5.709,13.115A1.638,1.638,0,1,0,5.714,9.84,1.307,1.307,0,0,0,5.721,9.7,1.651,1.651,0,0,0,4.06,8.064H2.832a6.251,6.251,0,0,0,1.595,5.051Z" fill="#f2f2f2" /><path d="M15.045,7.815c0-.015,0-.03-.007-.044a5.978,5.978,0,0,0-1.406-2.88,1.825,1.825,0,0,0-.289-.09,1.806,1.806,0,0,0-2.3,1.663,2,2,0,0,0-.2-.013,1.737,1.737,0,0,0-.581,3.374,1.451,1.451,0,0,0,.541.1h2.03A13.453,13.453,0,0,0,15.045,7.815Z" fill="#f2f2f2" /></g></g><path d="M17.191,3.832c-.629-1.047-2.1-1.455-4.155-1.149a14.606,14.606,0,0,0-2.082.452,6.456,6.456,0,0,1,1.528.767c.241-.053.483-.116.715-.151A7.49,7.49,0,0,1,14.3,3.662a2.188,2.188,0,0,1,1.959.725h0c.383.638.06,1.729-.886,3a16.723,16.723,0,0,1-4.749,4.051A16.758,16.758,0,0,1,4.8,13.7c-1.564.234-2.682,0-3.065-.636s-.06-1.73.886-2.995c.117-.157.146-.234.279-.392a6.252,6.252,0,0,1,.026-1.63A11.552,11.552,0,0,0,1.756,9.419C.517,11.076.181,12.566.809,13.613a3.165,3.165,0,0,0,2.9,1.249,8.434,8.434,0,0,0,1.251-.1,17.855,17.855,0,0,0,6.219-2.4,17.808,17.808,0,0,0,5.061-4.332C17.483,6.369,17.819,4.88,17.191,3.832Z" fill="#50e6ff" /></svg><text x="694" y="633.0" font-size="14" font-weight="700" fill="#12243a" text-anchor="start">Cosmos DB</text><text x="694" y="650.0" font-size="11.5" font-weight="400" fill="#5b6a7d" text-anchor="start">catalogue, conversations</text>
<rect x="880" y="598" width="200" height="76" rx="10" fill="#ffffff" stroke="#dbe3ec" stroke-width="1.4"/><svg x="896" y="623.0" width="26" height="26" viewBox="0 0 18 18"><defs><linearGradient id="ad4c4f96-09aa-4f91-ba10-5cb8ad530f74" x1="9" y1="15.83" x2="9" y2="5.79" gradientUnits="userSpaceOnUse"><stop offset="0" stop-color="#b3b3b3" /><stop offset="0.26" stop-color="#c1c1c1" /><stop offset="1" stop-color="#e6e6e6" /></linearGradient></defs><title>Icon-storage-86</title><path d="M.5,5.79h17a0,0,0,0,1,0,0v9.48a.57.57,0,0,1-.57.57H1.07a.57.57,0,0,1-.57-.57V5.79A0,0,0,0,1,.5,5.79Z" fill="url(#ad4c4f96-09aa-4f91-ba10-5cb8ad530f74)" /><path d="M1.07,2.17H16.93a.57.57,0,0,1,.57.57V5.79a0,0,0,0,1,0,0H.5a0,0,0,0,1,0,0V2.73A.57.57,0,0,1,1.07,2.17Z" fill="#37c2b1" /><path d="M2.81,6.89H15.18a.27.27,0,0,1,.26.27v1.4a.27.27,0,0,1-.26.27H2.81a.27.27,0,0,1-.26-.27V7.16A.27.27,0,0,1,2.81,6.89Z" fill="#fff" /><path d="M2.82,9.68H15.19a.27.27,0,0,1,.26.27v1.41a.27.27,0,0,1-.26.27H2.82a.27.27,0,0,1-.26-.27V10A.27.27,0,0,1,2.82,9.68Z" fill="#37c2b1" /><path d="M2.82,12.5H15.19a.27.27,0,0,1,.26.27v1.41a.27.27,0,0,1-.26.27H2.82a.27.27,0,0,1-.26-.27V12.77A.27.27,0,0,1,2.82,12.5Z" fill="#258277" /></svg><text x="934" y="633.0" font-size="14" font-weight="700" fill="#12243a" text-anchor="start">Blob Storage</text><text x="934" y="650.0" font-size="11.5" font-weight="400" fill="#5b6a7d" text-anchor="start">images, artefacts</text>
<rect x="40" y="540" width="550" height="190" rx="16" fill="#ecfaf3" stroke="#c6ebda" stroke-width="1.5"/><svg x="60" y="558" width="26" height="26" viewBox="0 0 18 18"><defs><radialGradient id="a7a1c431-6c6d-4a8f-9a69-8da437e5b0c5" cx="9" cy="7.35" r="6.42" gradientUnits="userSpaceOnUse"><stop offset="0" stop-color="#b77af4" /><stop offset="0.21" stop-color="#b378f2" /><stop offset="0.43" stop-color="#a672ed" /><stop offset="0.65" stop-color="#9267e4" /><stop offset="0.88" stop-color="#7559d8" /><stop offset="1" stop-color="#624fd0" /></radialGradient><linearGradient id="ec0c4f0d-5c8e-4882-96a1-89d61808eb49" x1="9.02" y1="3.91" x2="9.08" y2="11.49" gradientUnits="userSpaceOnUse"><stop offset="0" stop-color="#f2f2f2" /><stop offset="0.23" stop-color="#f1f1f2" stop-opacity="0.99" /><stop offset="0.37" stop-color="#ededf1" stop-opacity="0.95" /><stop offset="0.48" stop-color="#e7e5f0" stop-opacity="0.89" /><stop offset="0.58" stop-color="#dedbee" stop-opacity="0.81" /><stop offset="0.67" stop-color="#d3ceeb" stop-opacity="0.7" /><stop offset="0.76" stop-color="#c4bee8" stop-opacity="0.57" /><stop offset="0.84" stop-color="#b4abe5" stop-opacity="0.41" /><stop offset="0.92" stop-color="#a095e1" stop-opacity="0.22" /><stop offset="0.99" stop-color="#8b7ddc" stop-opacity="0.02" /><stop offset="1" stop-color="#897bdc" stop-opacity="0" /></linearGradient></defs><title>Icon-manage-310</title><path d="M10.23,17.39l.81-.87V14.2H7v2.32l.81.87A.32.32,0,0,0,8,17.5h2A.32.32,0,0,0,10.23,17.39Z" fill="#cecece" /><path d="M9,.5A5.89,5.89,0,0,0,3.09,7.07c.27,2.47,2.62,3.62,3.29,6.75a.49.49,0,0,0,.47.38h4.3a.49.49,0,0,0,.47-.38c.67-3.13,3-4.28,3.29-6.75A5.89,5.89,0,0,0,9,.5ZM7,14.2" fill="url(#a7a1c431-6c6d-4a8f-9a69-8da437e5b0c5)" /><path d="M11.46,3.79a1.4,1.4,0,0,0-1.35,1.44V6H8V5.23A1.41,1.41,0,0,0,6.59,3.79,1.4,1.4,0,0,0,5.24,5.23,1.41,1.41,0,0,0,6.59,6.68h.64v6a.36.36,0,0,0,.72,0v-6h2.16v6a.36.36,0,1,0,.72,0v-6h.63a1.4,1.4,0,0,0,1.35-1.45A1.4,1.4,0,0,0,11.46,3.79ZM7.23,6H6.55a.74.74,0,0,1-.68-.77.74.74,0,0,1,.68-.77.74.74,0,0,1,.68.77Zm4.28,0h-.68V5.19a.68.68,0,1,1,1.35,0A.73.73,0,0,1,11.51,6Z" fill="url(#ec0c4f0d-5c8e-4882-96a1-89d61808eb49)" /><polygon points="6.96 15.8 11.04 15.01 11.04 14.56 6.96 15.36 6.96 15.8" fill="#999" /><polygon points="11.04 16.11 11.04 15.67 6.96 16.48 6.96 16.52 7.27 16.86 11.04 16.11" fill="#999" /></svg><text x="96" y="578" font-size="16" font-weight="700" fill="#12243a" text-anchor="start">Observability</text>
<rect x="60" y="598" width="250" height="76" rx="10" fill="#ffffff" stroke="#dbe3ec" stroke-width="1.4"/><svg x="76" y="623.0" width="26" height="26" viewBox="0 0 18 18"><defs><radialGradient id="a7a1c431-6c6d-4a8f-9a69-8da437e5b0c5" cx="9" cy="7.35" r="6.42" gradientUnits="userSpaceOnUse"><stop offset="0" stop-color="#b77af4" /><stop offset="0.21" stop-color="#b378f2" /><stop offset="0.43" stop-color="#a672ed" /><stop offset="0.65" stop-color="#9267e4" /><stop offset="0.88" stop-color="#7559d8" /><stop offset="1" stop-color="#624fd0" /></radialGradient><linearGradient id="ec0c4f0d-5c8e-4882-96a1-89d61808eb49" x1="9.02" y1="3.91" x2="9.08" y2="11.49" gradientUnits="userSpaceOnUse"><stop offset="0" stop-color="#f2f2f2" /><stop offset="0.23" stop-color="#f1f1f2" stop-opacity="0.99" /><stop offset="0.37" stop-color="#ededf1" stop-opacity="0.95" /><stop offset="0.48" stop-color="#e7e5f0" stop-opacity="0.89" /><stop offset="0.58" stop-color="#dedbee" stop-opacity="0.81" /><stop offset="0.67" stop-color="#d3ceeb" stop-opacity="0.7" /><stop offset="0.76" stop-color="#c4bee8" stop-opacity="0.57" /><stop offset="0.84" stop-color="#b4abe5" stop-opacity="0.41" /><stop offset="0.92" stop-color="#a095e1" stop-opacity="0.22" /><stop offset="0.99" stop-color="#8b7ddc" stop-opacity="0.02" /><stop offset="1" stop-color="#897bdc" stop-opacity="0" /></linearGradient></defs><title>Icon-manage-310</title><path d="M10.23,17.39l.81-.87V14.2H7v2.32l.81.87A.32.32,0,0,0,8,17.5h2A.32.32,0,0,0,10.23,17.39Z" fill="#cecece" /><path d="M9,.5A5.89,5.89,0,0,0,3.09,7.07c.27,2.47,2.62,3.62,3.29,6.75a.49.49,0,0,0,.47.38h4.3a.49.49,0,0,0,.47-.38c.67-3.13,3-4.28,3.29-6.75A5.89,5.89,0,0,0,9,.5ZM7,14.2" fill="url(#a7a1c431-6c6d-4a8f-9a69-8da437e5b0c5)" /><path d="M11.46,3.79a1.4,1.4,0,0,0-1.35,1.44V6H8V5.23A1.41,1.41,0,0,0,6.59,3.79,1.4,1.4,0,0,0,5.24,5.23,1.41,1.41,0,0,0,6.59,6.68h.64v6a.36.36,0,0,0,.72,0v-6h2.16v6a.36.36,0,1,0,.72,0v-6h.63a1.4,1.4,0,0,0,1.35-1.45A1.4,1.4,0,0,0,11.46,3.79ZM7.23,6H6.55a.74.74,0,0,1-.68-.77.74.74,0,0,1,.68-.77.74.74,0,0,1,.68.77Zm4.28,0h-.68V5.19a.68.68,0,1,1,1.35,0A.73.73,0,0,1,11.51,6Z" fill="url(#ec0c4f0d-5c8e-4882-96a1-89d61808eb49)" /><polygon points="6.96 15.8 11.04 15.01 11.04 14.56 6.96 15.36 6.96 15.8" fill="#999" /><polygon points="11.04 16.11 11.04 15.67 6.96 16.48 6.96 16.52 7.27 16.86 11.04 16.11" fill="#999" /></svg><text x="114" y="633.0" font-size="14" font-weight="700" fill="#12243a" text-anchor="start">Application Insights</text><text x="114" y="650.0" font-size="11.5" font-weight="400" fill="#5b6a7d" text-anchor="start">traces, tokens, cost</text>
<rect x="330" y="598" width="240" height="76" rx="10" fill="#ffffff" stroke="#dbe3ec" stroke-width="1.4"/><svg x="346" y="623.0" width="26" height="26" viewBox="0 0 18 18"><defs><linearGradient id="a997e203-1d7d-4cb9-b131-5dc44e029b46" x1="5.23" y1="17.45" x2="5.23" y2="8.09" gradientUnits="userSpaceOnUse"><stop offset="0" stop-color="#1988d9" /><stop offset="0.9" stop-color="#54aef0" /></linearGradient><linearGradient id="e122e9d8-aee5-4f1a-a60e-b1eae355daa5" x1="11.5" y1="12.45" x2="11.5" y2="0.55" gradientUnits="userSpaceOnUse"><stop offset="0" stop-color="#198ab3" /><stop offset="0.01" stop-color="#198bb4" /><stop offset="0.44" stop-color="#27b2d7" /><stop offset="0.79" stop-color="#2fcbed" /><stop offset="1" stop-color="#32d4f5" /></linearGradient></defs><title>Icon-manage-307</title><path d="M5.59,13.13H9.91v4.32H5.59ZM1.15,17.45H4.87V13.13H.55v3.72A.6.6,0,0,0,1.15,17.45Zm-.6-5H4.87V8.09H.55Z" fill="url(#a997e203-1d7d-4cb9-b131-5dc44e029b46)" /><path d="M11.5.55a5.89,5.89,0,0,1,5.95,6,5.89,5.89,0,0,1-5.95,5.95H5.55V6.5A5.89,5.89,0,0,1,11.5.55Z" fill-rule="evenodd" fill="url(#e122e9d8-aee5-4f1a-a60e-b1eae355daa5)" /><rect x="7.59" y="5.65" width="1.36" height="4.08" fill="#fff" /><rect x="10.31" y="7.01" width="1.36" height="2.72" fill="#fff" /><rect x="13.03" y="4.29" width="1.36" height="5.44" fill="#fff" /></svg><text x="384" y="633.0" font-size="14" font-weight="700" fill="#12243a" text-anchor="start">Log Analytics</text><text x="384" y="650.0" font-size="11.5" font-weight="400" fill="#5b6a7d" text-anchor="start">KQL, alerts</text>
<rect x="1130" y="540" width="390" height="208" rx="16" fill="#fff6e9" stroke="#f5dcb8" stroke-width="1.5"/><svg x="1150" y="558" width="26" height="26" viewBox="0 0 18 18"><defs><linearGradient id="bb67b154-af8f-4a53-a9ce-aa046b9398e9" x1="13.18" y1="13.01" x2="8.63" y2="4.38" gradientUnits="userSpaceOnUse"><stop offset="0" stop-color="#1988d9" /><stop offset="0.9" stop-color="#54aef0" /></linearGradient><linearGradient id="a47d7138-084a-471d-8d63-744e75b9e8a3" x1="11.22" y1="10.5" x2="14.37" y2="15.93" gradientUnits="userSpaceOnUse"><stop offset="0.1" stop-color="#54aef0" /><stop offset="0.29" stop-color="#4fabee" /><stop offset="0.51" stop-color="#41a2e9" /><stop offset="0.74" stop-color="#2a93e0" /><stop offset="0.88" stop-color="#1988d9" /></linearGradient></defs><title>Icon-identity-227</title><g><polygon points="1.15 10.22 8.93 15.27 16.85 10.21 17.85 11.36 8.93 17.11 0.15 11.37 1.15 10.22" fill="#50e6ff" /><polygon points="1.73 9.58 8.93 1 16.28 9.59 8.93 14.23 1.73 9.58" fill="#fff" /><polygon points="8.93 1 8.93 14.23 1.73 9.58 8.93 1" fill="#50e6ff" /><polygon points="8.93 1 8.93 14.23 16.28 9.59 8.93 1" fill="url(#bb67b154-af8f-4a53-a9ce-aa046b9398e9)" /><polygon points="8.93 7.83 16.28 9.59 8.93 14.23 8.93 7.83" fill="#53b1e0" /><polygon points="8.93 14.23 1.73 9.58 8.93 7.83 8.93 14.23" fill="#9cebff" /><polygon points="8.93 17.11 17.85 11.36 16.85 10.21 8.93 15.27 8.93 17.11" fill="url(#a47d7138-084a-471d-8d63-744e75b9e8a3)" /><g><path id="e189a61f-631a-4122-bb2b-079e86004d96" d="M16.32,11.88a1.16,1.16,0,0,0,0-1.65h0l-2-2a1.16,1.16,0,0,0-1.64,0h0l-2,2a1.18,1.18,0,0,0,0,1.65l1.67,1.67a.32.32,0,0,1,.09.23v3.1a.36.36,0,0,0,.12.28l.76.76a.25.25,0,0,0,.37,0l.73-.73h0l.44-.44a.15.15,0,0,0,0-.21l-.31-.31a.16.16,0,0,1,0-.24l.31-.31a.16.16,0,0,0,0-.22l-.31-.31a.15.15,0,0,1,0-.23l.31-.32a.15.15,0,0,0,0-.21l-.44-.44v-.16ZM13.5,8.71a.66.66,0,1,1-.66.66.66.66,0,0,1,.66-.66Z" fill="#ffca00" /><path id="fb7033ee-4650-4886-80c7-eddf62560f85" d="M13,17h0a.14.14,0,0,0,.24-.11V14.33a.16.16,0,0,0-.06-.13h0a.14.14,0,0,0-.22.13v2.51A.15.15,0,0,0,13,17Z" fill="#ff9300" opacity="0.75" /><rect id="b166b8c2-b9ee-4c3d-bf7a-77bd5ce0570b" x="11.9" y="10.9" width="3.29" height="0.39" rx="0.18" fill="#ff9300" opacity="0.75" /><rect id="baf437fe-3483-4a25-94ba-1e84a64cd2eb" x="11.9" y="11.53" width="3.29" height="0.39" rx="0.18" fill="#ff9300" opacity="0.75" /></g></g></svg><text x="1186" y="578" font-size="16" font-weight="700" fill="#12243a" text-anchor="start">Security and Identity</text>
<rect x="1150" y="592" width="350" height="62" rx="10" fill="#ffffff" stroke="#dbe3ec" stroke-width="1.4"/><svg x="1166" y="610.0" width="26" height="26" viewBox="0 0 18 18"><defs><linearGradient id="bb67b154-af8f-4a53-a9ce-aa046b9398e9" x1="13.18" y1="13.01" x2="8.63" y2="4.38" gradientUnits="userSpaceOnUse"><stop offset="0" stop-color="#1988d9" /><stop offset="0.9" stop-color="#54aef0" /></linearGradient><linearGradient id="a47d7138-084a-471d-8d63-744e75b9e8a3" x1="11.22" y1="10.5" x2="14.37" y2="15.93" gradientUnits="userSpaceOnUse"><stop offset="0.1" stop-color="#54aef0" /><stop offset="0.29" stop-color="#4fabee" /><stop offset="0.51" stop-color="#41a2e9" /><stop offset="0.74" stop-color="#2a93e0" /><stop offset="0.88" stop-color="#1988d9" /></linearGradient></defs><title>Icon-identity-227</title><g><polygon points="1.15 10.22 8.93 15.27 16.85 10.21 17.85 11.36 8.93 17.11 0.15 11.37 1.15 10.22" fill="#50e6ff" /><polygon points="1.73 9.58 8.93 1 16.28 9.59 8.93 14.23 1.73 9.58" fill="#fff" /><polygon points="8.93 1 8.93 14.23 1.73 9.58 8.93 1" fill="#50e6ff" /><polygon points="8.93 1 8.93 14.23 16.28 9.59 8.93 1" fill="url(#bb67b154-af8f-4a53-a9ce-aa046b9398e9)" /><polygon points="8.93 7.83 16.28 9.59 8.93 14.23 8.93 7.83" fill="#53b1e0" /><polygon points="8.93 14.23 1.73 9.58 8.93 7.83 8.93 14.23" fill="#9cebff" /><polygon points="8.93 17.11 17.85 11.36 16.85 10.21 8.93 15.27 8.93 17.11" fill="url(#a47d7138-084a-471d-8d63-744e75b9e8a3)" /><g><path id="e189a61f-631a-4122-bb2b-079e86004d96" d="M16.32,11.88a1.16,1.16,0,0,0,0-1.65h0l-2-2a1.16,1.16,0,0,0-1.64,0h0l-2,2a1.18,1.18,0,0,0,0,1.65l1.67,1.67a.32.32,0,0,1,.09.23v3.1a.36.36,0,0,0,.12.28l.76.76a.25.25,0,0,0,.37,0l.73-.73h0l.44-.44a.15.15,0,0,0,0-.21l-.31-.31a.16.16,0,0,1,0-.24l.31-.31a.16.16,0,0,0,0-.22l-.31-.31a.15.15,0,0,1,0-.23l.31-.32a.15.15,0,0,0,0-.21l-.44-.44v-.16ZM13.5,8.71a.66.66,0,1,1-.66.66.66.66,0,0,1,.66-.66Z" fill="#ffca00" /><path id="fb7033ee-4650-4886-80c7-eddf62560f85" d="M13,17h0a.14.14,0,0,0,.24-.11V14.33a.16.16,0,0,0-.06-.13h0a.14.14,0,0,0-.22.13v2.51A.15.15,0,0,0,13,17Z" fill="#ff9300" opacity="0.75" /><rect id="b166b8c2-b9ee-4c3d-bf7a-77bd5ce0570b" x="11.9" y="10.9" width="3.29" height="0.39" rx="0.18" fill="#ff9300" opacity="0.75" /><rect id="baf437fe-3483-4a25-94ba-1e84a64cd2eb" x="11.9" y="11.53" width="3.29" height="0.39" rx="0.18" fill="#ff9300" opacity="0.75" /></g></g></svg><text x="1204" y="620.0" font-size="14" font-weight="700" fill="#12243a" text-anchor="start">Managed identity</text><text x="1204" y="637.0" font-size="11.5" font-weight="400" fill="#5b6a7d" text-anchor="start">no API key anywhere</text>
<rect x="1150" y="666" width="350" height="62" rx="10" fill="#ffffff" stroke="#dbe3ec" stroke-width="1.4"/><svg x="1166" y="684.0" width="26" height="26" viewBox="0 0 18 18"><defs><radialGradient id="fb114c93-7c16-4540-899a-0796041629e6" cx="9" cy="9" r="8.5" gradientUnits="userSpaceOnUse"><stop offset="0.18" stop-color="#5ea0ef" /><stop offset="0.56" stop-color="#5c9fee" /><stop offset="0.69" stop-color="#559ced" /><stop offset="0.78" stop-color="#4a97e9" /><stop offset="0.86" stop-color="#3990e4" /><stop offset="0.93" stop-color="#2387de" /><stop offset="0.99" stop-color="#087bd6" /><stop offset="1" stop-color="#0078d4" /></radialGradient><radialGradient id="ec478bd3-5b38-4e7f-b661-11f355578bff" cx="38.95" cy="182.07" r="9.88" gradientTransform="translate(-28.71 -163.24) scale(0.94 0.94)" gradientUnits="userSpaceOnUse"><stop offset="0.27" stop-color="#ffd70f" /><stop offset="0.49" stop-color="#ffcb12" /><stop offset="0.88" stop-color="#feac19" /><stop offset="1" stop-color="#fea11b" /></radialGradient></defs><title>Icon-security-245</title><path id="aacf8311-a317-400f-b613-74bd00da5ce3" d="M9,.5A8.5,8.5,0,1,0,17.5,9,8.51,8.51,0,0,0,9,.5ZM9,16.34A7.34,7.34,0,1,1,16.34,9,7.34,7.34,0,0,1,9,16.34Z" fill="url(#fb114c93-7c16-4540-899a-0796041629e6)" /><circle cx="9" cy="9" r="7.34" fill="#fff" /><g><path id="bd983c41-db73-40ec-a4f4-da1213fc9924" d="M13.44,7.33a1.84,1.84,0,0,0,0-2.59h0L10.29,1.58a1.83,1.83,0,0,0-2.58,0h0L4.56,4.74a1.84,1.84,0,0,0,0,2.59L7.18,10a.51.51,0,0,1,.15.36v4.88a.63.63,0,0,0,.18.44l1.2,1.2a.41.41,0,0,0,.58,0l1.16-1.16h0l.68-.68a.25.25,0,0,0,0-.34l-.49-.49a.27.27,0,0,1,0-.37l.49-.49a.25.25,0,0,0,0-.34l-.49-.49a.27.27,0,0,1,0-.37l.49-.49a.25.25,0,0,0,0-.34l-.68-.69v-.25ZM9,2.35A1,1,0,0,1,9,4.42,1,1,0,1,1,9,2.35Z" fill="url(#ec478bd3-5b38-4e7f-b661-11f355578bff)" /><path id="ad2e7e44-9bfd-4775-8bf4-8ef26a544921" d="M8.18,15.3h0a.23.23,0,0,0,.38-.17v-4a.24.24,0,0,0-.11-.2h0a.22.22,0,0,0-.34.2v4A.28.28,0,0,0,8.18,15.3Z" fill="#ff9300" opacity="0.75" /><rect id="a996fbff-3936-4b24-b407-369336c143ba" x="6.48" y="5.79" width="5.17" height="0.61" rx="0.28" fill="#ff9300" opacity="0.75" /><rect id="bb12d31c-3352-4a18-87dd-a169a4a8721d" x="6.48" y="6.78" width="5.17" height="0.61" rx="0.28" fill="#ff9300" opacity="0.75" /></g></svg><text x="1204" y="694.0" font-size="14" font-weight="700" fill="#12243a" text-anchor="start">Key Vault</text><text x="1204" y="711.0" font-size="11.5" font-weight="400" fill="#5b6a7d" text-anchor="start">what an identity cannot replace</text>
<rect x="40" y="770" width="550" height="250" rx="16" fill="#ecfaf3" stroke="#c6ebda" stroke-width="1.5"/><svg x="60" y="788" width="26" height="26" viewBox="0 0 18 18"><defs><linearGradient id="e1bcfd0f-68b5-4f66-9501-e6a7245a18e7" x1="1.1" y1="169" x2="11.12" y2="169" gradientTransform="translate(0 -160)" gradientUnits="userSpaceOnUse"><stop offset="0" stop-color="#50c7e8" /><stop offset="0.25" stop-color="#4cc3e4" /><stop offset="0.51" stop-color="#41b6da" /><stop offset="0.77" stop-color="#2fa2c8" /><stop offset="1" stop-color="#1989b2" /></linearGradient></defs><title>Icon-166Artboard 1</title><path id="bc892891-989d-4c43-80d3-d2b4546a974f" d="M15.8,17.5H2.2L1.1,13.4H16.9Z" fill="#198ab3" /><polygon points="6.9 0.5 6.9 6.9 1.1 13.4 2.2 17.5 11.1 6.9 11.1 0.5 6.9 0.5" fill="url(#e1bcfd0f-68b5-4f66-9501-e6a7245a18e7)" /><path id="e6be01d6-345d-4df4-bbdb-151aa8edaa1f" d="M15.8,17.5,9.6,11.1l2.6-3,4.7,5.3Z" fill="#32bedd" /></svg><text x="96" y="808" font-size="16" font-weight="700" fill="#12243a" text-anchor="start">MLOps</text>
<rect x="60" y="828" width="250" height="76" rx="10" fill="#ffffff" stroke="#dbe3ec" stroke-width="1.4"/><svg x="76" y="853.0" width="26" height="26" viewBox="0 0 18 18"><defs><linearGradient id="e1bcfd0f-68b5-4f66-9501-e6a7245a18e7" x1="1.1" y1="169" x2="11.12" y2="169" gradientTransform="translate(0 -160)" gradientUnits="userSpaceOnUse"><stop offset="0" stop-color="#50c7e8" /><stop offset="0.25" stop-color="#4cc3e4" /><stop offset="0.51" stop-color="#41b6da" /><stop offset="0.77" stop-color="#2fa2c8" /><stop offset="1" stop-color="#1989b2" /></linearGradient></defs><title>Icon-166Artboard 1</title><path id="bc892891-989d-4c43-80d3-d2b4546a974f" d="M15.8,17.5H2.2L1.1,13.4H16.9Z" fill="#198ab3" /><polygon points="6.9 0.5 6.9 6.9 1.1 13.4 2.2 17.5 11.1 6.9 11.1 0.5 6.9 0.5" fill="url(#e1bcfd0f-68b5-4f66-9501-e6a7245a18e7)" /><path id="e6be01d6-345d-4df4-bbdb-151aa8edaa1f" d="M15.8,17.5,9.6,11.1l2.6-3,4.7,5.3Z" fill="#32bedd" /></svg><text x="114" y="863.0" font-size="14" font-weight="700" fill="#12243a" text-anchor="start">Azure ML</text><text x="114" y="880.0" font-size="11.5" font-weight="400" fill="#5b6a7d" text-anchor="start">Apriori, MLflow</text>
<rect x="330" y="828" width="240" height="76" rx="10" fill="#ffffff" stroke="#dbe3ec" stroke-width="1.4"/><svg x="346" y="853.0" width="26" height="26" viewBox="0 0 18 18"><defs><linearGradient id="e1bcfd0f-68b5-4f66-9501-e6a7245a18e7" x1="1.1" y1="169" x2="11.12" y2="169" gradientTransform="translate(0 -160)" gradientUnits="userSpaceOnUse"><stop offset="0" stop-color="#50c7e8" /><stop offset="0.25" stop-color="#4cc3e4" /><stop offset="0.51" stop-color="#41b6da" /><stop offset="0.77" stop-color="#2fa2c8" /><stop offset="1" stop-color="#1989b2" /></linearGradient></defs><title>Icon-166Artboard 1</title><path id="bc892891-989d-4c43-80d3-d2b4546a974f" d="M15.8,17.5H2.2L1.1,13.4H16.9Z" fill="#198ab3" /><polygon points="6.9 0.5 6.9 6.9 1.1 13.4 2.2 17.5 11.1 6.9 11.1 0.5 6.9 0.5" fill="url(#e1bcfd0f-68b5-4f66-9501-e6a7245a18e7)" /><path id="e6be01d6-345d-4df4-bbdb-151aa8edaa1f" d="M15.8,17.5,9.6,11.1l2.6-3,4.7,5.3Z" fill="#32bedd" /></svg><text x="384" y="863.0" font-size="14" font-weight="700" fill="#12243a" text-anchor="start">Model registry</text><text x="384" y="880.0" font-size="11.5" font-weight="400" fill="#5b6a7d" text-anchor="start">versioned artefacts</text>
<text x="60" y="946" font-size="11.5" font-weight="400" fill="#5b6a7d" text-anchor="start">49894 transactions, trained offline, artefacts read by the app at startup</text>
<rect x="620" y="770" width="900" height="250" rx="16" fill="#fdeef3" stroke="#f6cfdd" stroke-width="1.5"/><svg x="640" y="788" width="26" height="26" viewBox="0 0 18 18"><defs><linearGradient id="bdf27dc6-025c-4805-8bfd-3a05defd3fbd" x1="8.637" y1="-1.991" x2="8.637" y2="16.739" gradientUnits="userSpaceOnUse"><stop offset="0" stop-color="#5ea0ef" /><stop offset="1" stop-color="#0078d4" /></linearGradient><linearGradient id="fcd6c6c7-e2eb-4a32-b914-3a8485585a1b" x1="12.96" y1="8.561" x2="12.96" y2="6.141" gradientTransform="matrix(1, 0, 0, -1, 0, 20)" gradientUnits="userSpaceOnUse"><stop offset="0" stop-color="#333132" /><stop offset="1" stop-color="#5b5a5c" /></linearGradient></defs><path d="M7.43,8.178l2.589-1.573,7.255,2.731A3.664,3.664,0,0,0,16.23,7.49l-.01-.05A4.194,4.194,0,0,0,14,6.32a4.91,4.91,0,0,0-5.1-4.7A5.071,5.071,0,0,0,4.06,4.91,4.621,4.621,0,0,0,0,9.39a4.73,4.73,0,0,0,4.89,4.54H7.43Z" fill="url(#bdf27dc6-025c-4805-8bfd-3a05defd3fbd)" /><polygon points="10.07 7.159 10.08 11.439 17.99 13.119 17.99 10.139 10.07 7.159" fill="#767676" /><polyline points="10.07 7.159 7.93 8.459 7.93 12.439 10.08 11.439" fill="#999" /><polygon points="13.68 11.499 14.4 11.699 14.4 9.369 13.68 9.119 13.68 11.499" fill="#a3a3a3" /><polygon points="12.96 8.889 12.24 8.629 12.24 11.119 12.96 11.319 12.96 8.889" fill="#a3a3a3" /><polygon points="15.12 11.889 15.82 12.079 15.84 9.859 15.12 9.619 15.12 11.889" fill="#a3a3a3" /><polygon points="10.81 10.749 11.53 10.929 11.53 8.399 10.81 8.159 10.81 10.749" fill="#a3a3a3" /><polygon points="17.27 10.349 16.55 10.099 16.55 12.269 17.27 12.469 17.27 10.349" fill="#a3a3a3" /><path id="ef0d1b54-a1e7-4cb9-a4e5-8a8518e7c127" d="M8.66,11.369l-.36.21V8.749l.36-.19Zm.71-3.22L9,8.389v2.75l.37-.2Z" fill="#b3b3b3" /><polygon points="17.99 13.119 15.83 13.859 7.93 12.439 10.08 11.439 17.99 13.119" fill="url(#fcd6c6c7-e2eb-4a32-b914-3a8485585a1b)" /><polygon points="17.99 16.169 10.04 17.679 10.08 12.089 17.99 13.559 17.99 16.169" fill="#767676" /><polygon points="10.81 16.759 10.81 13.209 11.53 13.299 11.53 16.639 10.81 16.759" fill="#a3a3a3" /><polygon points="12.96 16.399 12.24 16.529 12.24 13.389 12.96 13.499 12.96 16.399 12.96 16.399" fill="#a3a3a3" /><polygon points="13.68 16.289 13.68 13.569 14.4 13.659 14.4 16.159 13.68 16.289" fill="#a3a3a3" /><polygon points="15.83 15.909 15.12 16.039 15.12 13.749 15.83 13.859 15.83 15.909" fill="#a3a3a3" /><polygon points="17.29 15.679 16.55 15.809 16.55 13.929 17.24 14.019 17.29 15.679" fill="#a3a3a3" /><path id="b9f25eb4-4c88-45c2-bc4d-f992757d7e0e" d="M7.93,16.4v-3.26l2.16-1v5.6Z" fill="#999" /><path id="eb9200a7-4693-4427-bdae-b33ce90ff7f2" d="M8.61,16.389l-.32-.16v-2.76l.32-.15Zm.77-3.45-.38.19v3.48l.37.19v-3.86Z" fill="#b3b3b3" /></svg><text x="676" y="808" font-size="16" font-weight="700" fill="#12243a" text-anchor="start">CI/CD and Infrastructure</text>
<rect x="640" y="828" width="260" height="76" rx="10" fill="#ffffff" stroke="#dbe3ec" stroke-width="1.4"/><svg x="656" y="853.0" width="26" height="26" viewBox="0 0 256 256"><path fill="#4a7ebf" d="M53.604 0c29.604 0 53.604 23.992 53.604 53.59c0 29.09-23.189 52.75-52.093 53.553c0 2.461.109 7.111 1.501 9.92c1.933 3.893 13.525 11.144 24.892 11.144h4.084c2.567-18.271 18.257-32.332 37.24-32.332c18.906 0 34.55 13.946 37.211 32.11h21.13c2.661-18.164 18.304-32.11 37.21-32.11c20.775 0 37.617 16.837 37.617 37.607s-16.842 37.606-37.617 37.606c-18.906 0-34.55-13.948-37.21-32.11h-21.129c-2.66 18.162-18.305 32.11-37.212 32.11c-18.87 0-34.494-13.893-37.199-32.007l-4.515.135c-7.435-.056-15.29-2.042-21.598-6.328c-1.72-1.169-3.415-2.397-5.182-3.56v2.441c-.01.79-.153 12.657-.164 25.833v2.79c.005 8.641.073 17.545.277 24.04c.446 14.246 12.034 25.745 24.822 28.436c1.663.35 4.52.394 6.321.238c2.571-18.264 18.26-32.32 37.238-32.32c20.774 0 37.616 16.838 37.616 37.607c0 20.77-16.842 37.607-37.616 37.607c-18.769 0-34.323-13.744-37.153-31.714h-3.254c-24.436-1.334-39.628-23.746-39.363-41.923c.334-22.877.082-45.764.079-68.646v-7.565C18.546 101.286 0 79.606 0 53.591C0 23.992 23.999 0 53.604 0m69.228 191.78c-14.701 0-26.62 11.915-26.62 26.613s11.919 26.614 26.62 26.614s26.62-11.915 26.62-26.614c0-14.698-11.918-26.614-26.62-26.614m0-84.912c-14.701 0-26.62 11.915-26.62 26.614c0 14.697 11.919 26.613 26.62 26.613s26.62-11.916 26.62-26.613c0-14.699-11.918-26.614-26.62-26.614m95.551 0c-14.702 0-26.62 11.915-26.62 26.614c0 14.697 11.918 26.613 26.62 26.613s26.621-11.916 26.621-26.613c0-14.699-11.918-26.614-26.62-26.614m15.161 15.408a5.496 5.496 0 0 1 .17 7.606l-.16.168l-16.31 16.345a5.5 5.5 0 0 1-7.576.198l-.172-.163l-7.985-7.86a5.496 5.496 0 0 1-.06-7.773a5.5 5.5 0 0 1 7.606-.22l.168.16l4.092 4.027l12.452-12.477a5.5 5.5 0 0 1 7.775-.01m-95.99-.08a5.497 5.497 0 0 1 .17 7.606l-.16.168l-16.31 16.344a5.5 5.5 0 0 1-7.576.198l-.172-.163l-7.985-7.86a5.498 5.498 0 0 1 7.546-7.992l.168.16l4.093 4.027l12.451-12.478a5.5 5.5 0 0 1 7.775-.01M53.604 10.993c-23.532 0-42.608 19.07-42.608 42.598c0 23.525 19.076 42.597 42.608 42.597s42.608-19.072 42.608-42.597c0-23.527-19.076-42.598-42.608-42.598M49.171 28.13A744 744 0 0 1 75.7 44.841c7.308 4.82 7.29 13.563-.1 18.394a609 609 0 0 1-27.058 16.712c-7.455 4.34-15.8-.65-16.002-9.344c-.13-5.602-.024-11.21-.032-16.817c-.006-5.454-.113-10.911.019-16.363c.222-9.248 8.736-14.066 16.643-9.293m-5.91 8.872v3.868l-.001 5.674l-.001 3.71v5.482c0 4.23.002 8.394.01 12.557c.003 1.96 1.023 1.88 2.343 1.063q11.408-7.071 22.827-14.127c1.258-.776 1.294-1.587.06-2.365c-8.154-5.139-16.318-10.26-25.238-15.862"/><path fill="#85b3df" d="M133.227 223.88a5.497 5.497 0 1 0 .001-10.996a5.497 5.497 0 0 0 0 10.995m-21.049.001a5.497 5.497 0 1 0 0-10.996a5.497 5.497 0 0 0 0 10.995m106.205 21.128c-14.702 0-26.62-11.915-26.62-26.614c0-14.698 11.918-26.614 26.62-26.614c14.701 0 26.62 11.916 26.62 26.614s-11.919 26.614-26.62 26.614m0-64.22c-18.906 0-34.55 13.947-37.211 32.11h-6.153c-2.685 0-4.864 2.461-4.864 5.496s2.179 5.497 4.864 5.497h6.153c2.66 18.163 18.305 32.11 37.21 32.11C239.159 256 256 239.162 256 218.393c0-20.77-16.842-37.607-37.616-37.607"/></svg><text x="694" y="863.0" font-size="14" font-weight="700" fill="#12243a" text-anchor="start">GitHub Actions</text><text x="694" y="880.0" font-size="11.5" font-weight="400" fill="#5b6a7d" text-anchor="start">build, test, eval gate</text>
<rect x="930" y="828" width="260" height="76" rx="10" fill="#ffffff" stroke="#dbe3ec" stroke-width="1.4"/><svg x="946" y="853.0" width="26" height="26" viewBox="0 0 18 18"><defs><linearGradient id="bdf27dc6-025c-4805-8bfd-3a05defd3fbd" x1="8.637" y1="-1.991" x2="8.637" y2="16.739" gradientUnits="userSpaceOnUse"><stop offset="0" stop-color="#5ea0ef" /><stop offset="1" stop-color="#0078d4" /></linearGradient><linearGradient id="fcd6c6c7-e2eb-4a32-b914-3a8485585a1b" x1="12.96" y1="8.561" x2="12.96" y2="6.141" gradientTransform="matrix(1, 0, 0, -1, 0, 20)" gradientUnits="userSpaceOnUse"><stop offset="0" stop-color="#333132" /><stop offset="1" stop-color="#5b5a5c" /></linearGradient></defs><path d="M7.43,8.178l2.589-1.573,7.255,2.731A3.664,3.664,0,0,0,16.23,7.49l-.01-.05A4.194,4.194,0,0,0,14,6.32a4.91,4.91,0,0,0-5.1-4.7A5.071,5.071,0,0,0,4.06,4.91,4.621,4.621,0,0,0,0,9.39a4.73,4.73,0,0,0,4.89,4.54H7.43Z" fill="url(#bdf27dc6-025c-4805-8bfd-3a05defd3fbd)" /><polygon points="10.07 7.159 10.08 11.439 17.99 13.119 17.99 10.139 10.07 7.159" fill="#767676" /><polyline points="10.07 7.159 7.93 8.459 7.93 12.439 10.08 11.439" fill="#999" /><polygon points="13.68 11.499 14.4 11.699 14.4 9.369 13.68 9.119 13.68 11.499" fill="#a3a3a3" /><polygon points="12.96 8.889 12.24 8.629 12.24 11.119 12.96 11.319 12.96 8.889" fill="#a3a3a3" /><polygon points="15.12 11.889 15.82 12.079 15.84 9.859 15.12 9.619 15.12 11.889" fill="#a3a3a3" /><polygon points="10.81 10.749 11.53 10.929 11.53 8.399 10.81 8.159 10.81 10.749" fill="#a3a3a3" /><polygon points="17.27 10.349 16.55 10.099 16.55 12.269 17.27 12.469 17.27 10.349" fill="#a3a3a3" /><path id="ef0d1b54-a1e7-4cb9-a4e5-8a8518e7c127" d="M8.66,11.369l-.36.21V8.749l.36-.19Zm.71-3.22L9,8.389v2.75l.37-.2Z" fill="#b3b3b3" /><polygon points="17.99 13.119 15.83 13.859 7.93 12.439 10.08 11.439 17.99 13.119" fill="url(#fcd6c6c7-e2eb-4a32-b914-3a8485585a1b)" /><polygon points="17.99 16.169 10.04 17.679 10.08 12.089 17.99 13.559 17.99 16.169" fill="#767676" /><polygon points="10.81 16.759 10.81 13.209 11.53 13.299 11.53 16.639 10.81 16.759" fill="#a3a3a3" /><polygon points="12.96 16.399 12.24 16.529 12.24 13.389 12.96 13.499 12.96 16.399 12.96 16.399" fill="#a3a3a3" /><polygon points="13.68 16.289 13.68 13.569 14.4 13.659 14.4 16.159 13.68 16.289" fill="#a3a3a3" /><polygon points="15.83 15.909 15.12 16.039 15.12 13.749 15.83 13.859 15.83 15.909" fill="#a3a3a3" /><polygon points="17.29 15.679 16.55 15.809 16.55 13.929 17.24 14.019 17.29 15.679" fill="#a3a3a3" /><path id="b9f25eb4-4c88-45c2-bc4d-f992757d7e0e" d="M7.93,16.4v-3.26l2.16-1v5.6Z" fill="#999" /><path id="eb9200a7-4693-4427-bdae-b33ce90ff7f2" d="M8.61,16.389l-.32-.16v-2.76l.32-.15Zm.77-3.45-.38.19v3.48l.37.19v-3.86Z" fill="#b3b3b3" /></svg><text x="984" y="863.0" font-size="14" font-weight="700" fill="#12243a" text-anchor="start">Container Registry</text><text x="984" y="880.0" font-size="11.5" font-weight="400" fill="#5b6a7d" text-anchor="start">image per commit</text>
<rect x="1220" y="828" width="280" height="76" rx="10" fill="#ffffff" stroke="#dbe3ec" stroke-width="1.4"/><svg x="1236" y="853.0" width="26" height="26" viewBox="0 0 18 18"><defs><linearGradient id="a3a44093-b157-426e-a8fe-cec9f9c23978" x1="11.729" y1="4.88" x2="11.729" y2="13.099" gradientUnits="userSpaceOnUse"><stop offset="0.001" stop-color="#773adc" /><stop offset="0.528" stop-color="#6635bb" /><stop offset="1" stop-color="#552f99" /></linearGradient><linearGradient id="ad838859-03f4-472f-81bc-ebc921d71335" x1="6.35" y1="13.914" x2="6.35" y2="4.198" gradientUnits="userSpaceOnUse"><stop offset="0.001" stop-color="#773adc" /><stop offset="0.307" stop-color="#793ddd" /><stop offset="0.532" stop-color="#8046e1" /><stop offset="0.731" stop-color="#8c56e7" /><stop offset="0.915" stop-color="#9c6def" /><stop offset="1" stop-color="#a67af4" /></linearGradient></defs><g id="ae82470d-7a6c-4dfe-8533-59d8ff948629"><g><path d="M8.617,8.644H.639V1.784A1.16,1.16,0,0,1,1.788.624H8.617ZM1.63,7.653h6V1.594H1.788a.158.158,0,0,0-.158.158h0Z" fill="#949494" /><path d="M17.5,8.644H9.523V.624h6.828A1.16,1.16,0,0,1,17.5,1.784Zm-6.987-.991h6V1.784a.157.157,0,0,0-.123-.187.2.2,0,0,0-.035,0H10.513Z" fill="#949494" /><path d="M8.617,17.485H1.788A1.149,1.149,0,0,1,.639,16.347V9.476H8.617ZM1.63,10.467v5.88a.158.158,0,0,0,.158.158H7.626V10.467Z" fill="#949494" /><path d="M16.351,17.485H9.523V9.476H17.5v6.871A1.149,1.149,0,0,1,16.351,17.485Zm-5.838-.991h5.838a.157.157,0,0,0,.158-.158V10.467h-6Z" fill="#949494" /><path d="M14.6,6.294a.294.294,0,0,0-.2-.278L9.044,4.205A.128.128,0,0,0,9,4.2H9a.132.132,0,0,0-.133.133v9.445A.133.133,0,0,0,9,13.911H9a.138.138,0,0,0,.049-.01l5.365-2.145a.292.292,0,0,0,.184-.272Z" fill="url(#a3a44093-b157-426e-a8fe-cec9f9c23978)" /><path d="M8.966,4.2l-5.293.966a.161.161,0,0,0-.13.158V12.63a.16.16,0,0,0,.126.157L8.962,13.91a.161.161,0,0,0,.191-.121.22.22,0,0,0,0-.036V4.358A.16.16,0,0,0,9,4.2.163.163,0,0,0,8.966,4.2Z" fill="url(#ad838859-03f4-472f-81bc-ebc921d71335)" /><path d="M6.52,5.656v6.8l1.842.3V5.335Zm-2.262.367v5.955l1.6.326V5.754Z" fill="#b796f9" opacity="0.5" /></g></g></svg><text x="1274" y="863.0" font-size="14" font-weight="700" fill="#12243a" text-anchor="start">Container Apps</text><text x="1274" y="880.0" font-size="11.5" font-weight="400" fill="#5b6a7d" text-anchor="start">revision at 0 percent, then shift</text>
<path d="M900 866 H 922" fill="none" stroke="#7f8ea1" stroke-width="1.8" marker-end="url(#head)"/>
<path d="M1190 866 H 1212" fill="none" stroke="#7f8ea1" stroke-width="1.8" marker-end="url(#head)"/>
<text x="640" y="946" font-size="11.5" font-weight="400" fill="#5b6a7d" text-anchor="start">Bicep describes every resource, azd and OIDC deploy them, no stored secret</text>
<path d="M290 252 H 312" fill="none" stroke="#7f8ea1" stroke-width="1.8" marker-end="url(#head)"/>
<path d="M590 252 H 612" fill="none" stroke="#7f8ea1" stroke-width="1.8" marker-end="url(#head)"/>
<path d="M1100 300 H 1122" fill="none" stroke="#7f8ea1" stroke-width="1.8" marker-end="url(#head)"/>
<path d="M860 502 V 532" fill="none" stroke="#7f8ea1" stroke-width="1.8" marker-end="url(#head)"/>
<text x="872" y="524" font-size="11.5" font-weight="400" fill="#5b6a7d" text-anchor="start">read, persist</text>
<path d="M455 500 V 532" fill="none" stroke="#7f8ea1" stroke-width="1.8" stroke-dasharray="6 5" marker-end="url(#head)"/>
<text x="468" y="524" font-size="11.5" font-weight="400" fill="#5b6a7d" text-anchor="start">telemetry</text>
<path d="M330 828 V 740 H 900 V 682" fill="none" stroke="#7f8ea1" stroke-width="1.8" stroke-dasharray="6 5" marker-end="url(#head)"/>
<text x="430" y="758" font-size="11.5" font-weight="400" fill="#5b6a7d" text-anchor="start">artefacts to Blob</text>
<path d="M1360 828 V 762 H 605 V 300 H 596" fill="none" stroke="#7f8ea1" stroke-width="1.8" stroke-dasharray="6 5" marker-end="url(#head)"/>
<text x="1010" y="754" font-size="11.5" font-weight="400" fill="#5b6a7d" text-anchor="start">deploys the runtime</text>
</svg>
